<svg width="1336" height="497" viewBox="0 0 1336 497" fill="none" xmlns="http://www.w3.org/2000/svg">
<path d="M6 420.8C3.86667 421.333 2.26667 420 1.2 416.8C0.666668 413.6 0.666668 410.133 1.2 406.4C2.26667 400.533 4.4 396 7.6 392.8C8.13333 392.267 9.2 392 10.8 392C13.4667 390.933 16.6667 390.133 20.4 389.6C24.1333 389.067 28.1333 388.533 32.4 388C37.2 386.933 43.3333 386.133 50.8 385.6C58.2667 385.067 64.9333 383.733 70.8 381.6L112.4 377.6C111.867 377.067 111.6 376 111.6 374.4C111.6 373.867 111.867 373.333 112.4 372.8C113.467 371.733 114.267 370.933 114.8 370.4C114.8 369.333 114.533 368.8 114 368.8C114 368.267 114.267 367.733 114.8 367.2C123.333 346.933 135.867 322.4 152.4 293.6C169.467 264.267 186.533 234.133 203.6 203.2L215.6 181.6C216.667 177.867 218.267 175.733 220.4 175.2C223.067 174.133 224.933 172.533 226 170.4C227.067 168.8 226.8 167.733 225.2 167.2C224.133 166.667 224.4 165.333 226 163.2C234 148.8 243.067 134.4 253.2 120C263.867 105.6 273.2 92.5333 281.2 80.8V80C282.8 78.4 284.4 77.0666 286 76C287.6 74.9333 288.933 73.6 290 72C289.467 71.4667 289.467 70.9333 290 70.4C290.533 69.8666 290.533 69.3333 290 68.8C292.133 66.6667 294 64.5333 295.6 62.4C297.2 60.2666 298.267 57.6 298.8 54.4L312.4 36C305.467 37.0667 292.933 37.8667 274.8 38.4C257.2 38.4 239.333 39.2 221.2 40.8C216.933 41.8666 214 42.6666 212.4 43.2C208.667 43.7333 204.933 44.5333 201.2 45.6C197.467 46.6667 193.733 47.7333 190 48.8C186.267 48.8 181.467 50.4 175.6 53.6C169.733 56.8 164.667 60 160.4 63.2C156.133 65.8667 153.733 67.2 153.2 67.2C148.933 70.4 144.133 75.7333 138.8 83.2C134 90.6666 130.267 97.8666 127.6 104.8C124.933 111.733 124.4 116.533 126 119.2C126 120.267 125.733 121.333 125.2 122.4C125.2 123.467 125.2 124.533 125.2 125.6C125.2 130.933 126.533 135.467 129.2 139.2C131.867 144 132.933 146.667 132.4 147.2L136.4 152L142.8 154.4C145.467 156 146.8 157.867 146.8 160C146.8 162.667 144.933 164 141.2 164C138.533 164 135.333 162.133 131.6 158.4C129.467 157.333 127.333 156.267 125.2 155.2C123.067 154.133 120.667 153.333 118 152.8C109.467 154.4 103.333 153.333 99.6 149.6C96.4 145.867 94.8 140.8 94.8 134.4C94.8 122.667 99.3333 110.4 108.4 97.6C113.2 91.2 118.8 84.8 125.2 78.4C127.333 76.2667 129.2 74.1333 130.8 72C132.933 69.8666 135.067 68.8 137.2 68.8C139.333 70.9333 141.2 71.4666 142.8 70.4C144.933 69.3333 147.333 67.4666 150 64.8C150 64.8 148.4 64.8 145.2 64.8C143.067 65.3333 143.067 64.8 145.2 63.2C147.333 61.0667 148.4 60 148.4 60C149.467 58.9333 151.6 57.6 154.8 56C158 53.8667 160.933 52.2667 163.6 51.2C169.467 48.5333 174.533 46.1333 178.8 44C183.067 41.8666 187.867 40.2666 193.2 39.2C199.6 37.6 205.733 35.7333 211.6 33.6C218 31.4667 224.4 29.6 230.8 28C235.067 26.9333 239.067 26.4 242.8 26.4C246.533 25.8667 250.267 25.3333 254 24.8C255.067 24.8 257.2 24.2667 260.4 23.2H265.2L266.8 22.4C267.867 21.8666 269.467 21.6 271.6 21.6C274.267 21.0666 275.867 21.3333 276.4 22.4H282.8C287.067 21.3333 291.6 20.8 296.4 20.8C301.2 20.8 305.733 20.8 310 20.8C312.667 20.8 315.333 20.8 318 20.8C321.2 20.2666 323.867 20 326 20L330.8 15.2L335.6 11.2L347.6 3.19998C350.8 1.59999 353.733 0.79999 356.4 0.79999C359.067 0.79999 360.4 1.59999 360.4 3.19998C360.4 5.33332 359.333 7.46665 357.2 9.59997C355.6 11.2 354 12.8 352.4 14.4C351.333 16 350.267 17.6 349.2 19.2C353.467 19.2 359.867 19.4667 368.4 20C377.467 20 386.267 20.2666 394.8 20.8C403.333 21.3333 409.467 21.8666 413.2 22.4C414.267 22.4 416.667 23.2 420.4 24.8C424.133 25.8667 427.067 26.9333 429.2 28L431.6 28.8C434.267 29.3333 435.6 31.4666 435.6 35.2C435.6 38.9333 433.733 40 430 38.4L423.6 36L415.6 35.2C410.8 34.6666 404.4 34.1333 396.4 33.6C388.933 33.0666 382 32.8 375.6 32.8H365.2C364.667 32.8 364.133 33.0666 363.6 33.6C363.067 33.6 362.533 33.6 362 33.6C358.8 33.6 355.6 33.6 352.4 33.6C349.2 33.0666 346 32.8 342.8 32.8L330 33.6H329.2C322.267 42.6666 314.8 53.0667 306.8 64.8C299.333 76.5333 291.867 88.5333 284.4 100.8C283.333 105.067 282 107.733 280.4 108.8C278.8 109.867 276.4 110.933 273.2 112V114.4C273.2 116.533 272.667 119.2 271.6 122.4L262.8 137.6C260.133 142.4 257.2 147.2 254 152C251.333 156.267 249.2 160.533 247.6 164.8C241.733 175.467 235.6 186.667 229.2 198.4C223.333 210.133 218 220.8 213.2 230.4C208.933 239.467 206 245.867 204.4 249.6L202 261.6C200.933 263.2 198.533 263.733 194.8 263.2C191.6 262.667 190 264 190 267.2C190 269.867 190.533 272 191.6 273.6C192.667 274.667 193.2 276 193.2 277.6C193.2 279.2 192.133 281.067 190 283.2C185.733 292.267 181.467 301.067 177.2 309.6C173.467 318.133 170.267 326.133 167.6 333.6C167.6 334.133 166.8 335.467 165.2 337.6C164.133 339.733 163.333 341.333 162.8 342.4C162.267 342.933 162.533 343.2 163.6 343.2C164.667 343.2 164.933 343.733 164.4 344.8C163.333 350.133 162 355.733 160.4 361.6C158.8 366.933 157.2 371.733 155.6 376H156.4C159.6 376 163.067 375.733 166.8 375.2C170.533 374.667 174.267 374.133 178 373.6C184.4 373.067 191.6 372.8 199.6 372.8C208.133 372.8 214.8 372.8 219.6 372.8C222.267 372.8 225.733 373.067 230 373.6C234.8 373.6 238.267 373.867 240.4 374.4C242 374.933 242.267 375.467 241.2 376C240.667 376.533 240.933 377.067 242 377.6C243.6 377.6 244.933 377.333 246 376.8C247.067 376.267 248.667 376 250.8 376C253.467 374.4 255.867 374.667 258 376.8C260.133 376.8 262 377.067 263.6 377.6C265.733 378.133 267.6 378.667 269.2 379.2C272.933 379.733 274.8 381.867 274.8 385.6C274.8 389.333 272.4 390.4 267.6 388.8L260.4 386.4H257.2C251.867 386.4 243.6 386.133 232.4 385.6C221.733 385.067 211.867 385.067 202.8 385.6C201.2 385.6 200.667 385.067 201.2 384C201.733 382.4 201.467 381.6 200.4 381.6C199.867 381.6 198.533 382.133 196.4 383.2C194.8 384.267 193.467 384.8 192.4 384.8L186 387.2L148.4 391.2C148.933 391.733 148.933 392.533 148.4 393.6C148.4 394.133 147.6 395.2 146 396.8C144.933 398.4 144.4 399.733 144.4 400.8C142.267 405.6 139.333 408.8 135.6 410.4C132.4 412.533 129.2 413.6 126 413.6C121.733 413.6 118 412.533 114.8 410.4C111.6 408.267 109.733 406.667 109.2 405.6L106.8 399.2L94.8 401.6C88.9333 402.667 86 402.933 86 402.4C86.5333 401.867 87.3333 401.067 88.4 400C90 398.4 89.4667 397.6 86.8 397.6H85.2C81.4667 397.6 77.7333 398.4 74 400C70.8 401.6 68.9333 402.933 68.4 404C68.4 405.067 66.2667 406.4 62 408C57.7333 409.6 53.4667 410.667 49.2 411.2C45.4667 412.267 43.3333 413.067 42.8 413.6C35.8667 415.2 29.2 416.533 22.8 417.6C16.4 418.667 10.8 419.733 6 420.8ZM381.056 429.6C377.856 428.533 374.39 427.733 370.656 427.2C367.456 426.667 363.99 425.867 360.256 424.8L364.256 427.2C362.123 427.2 359.99 426.667 357.856 425.6C356.256 425.067 354.656 425.067 353.056 425.6L337.856 421.6L337.056 420.8C334.923 418.667 332.79 416.8 330.656 415.2C328.523 413.6 325.59 413.333 321.856 414.4C322.923 414.933 323.99 415.2 325.056 415.2C326.123 415.2 326.923 415.733 327.456 416.8H325.856C323.723 416.8 322.123 416.267 321.056 415.2C319.99 414.133 318.656 413.067 317.056 412C309.056 407.2 301.856 401.6 295.456 395.2V394.4C293.323 391.733 291.723 389.067 290.656 386.4C289.59 383.2 287.723 380.8 285.056 379.2H284.256C282.656 376 281.056 372.533 279.456 368.8C278.39 364.533 277.323 360.533 276.256 356.8C276.256 355.2 275.99 353.867 275.456 352.8C275.456 351.2 275.456 349.6 275.456 348C275.456 345.867 275.456 344 275.456 342.4C275.99 340.267 276.523 338.133 277.056 336C274.39 337.067 273.056 336.267 273.056 333.6C272.523 327.733 272.256 321.867 272.256 316C272.79 310.133 273.59 303.733 274.656 296.8L277.056 284.8C278.123 282.133 279.723 280.267 281.856 279.2C283.99 278.133 284.79 276.267 284.256 273.6C283.723 273.6 283.19 273.867 282.656 274.4C282.123 274.933 281.323 275.2 280.256 275.2C280.256 275.2 279.99 275.2 279.456 275.2C279.456 274.667 279.456 274.133 279.456 273.6H280.256V272.8C279.723 272.267 279.723 272 280.256 272C280.79 272 280.79 271.733 280.256 271.2V270.4C280.256 267.733 281.056 265.067 282.656 262.4C284.256 259.2 285.59 256 286.656 252.8C287.723 250.133 289.323 247.733 291.456 245.6C294.123 243.467 294.923 240.8 293.856 237.6H291.456C293.056 236.533 293.856 235.467 293.856 234.4L294.656 233.6L302.656 216.8H303.456C307.723 216.8 309.59 215.733 309.056 213.6C309.056 211.467 309.056 209.067 309.056 206.4V205.6L315.456 195.2C318.656 193.6 320.79 191.2 321.856 188C322.923 184.267 324.523 181.333 326.656 179.2C327.723 176.533 329.323 174.4 331.456 172.8C333.59 170.667 335.456 168.267 337.056 165.6C340.256 161.333 343.456 157.333 346.656 153.6C349.856 149.333 353.323 145.333 357.056 141.6C359.723 140.533 361.59 139.2 362.656 137.6C363.723 136 365.056 134.133 366.656 132C366.656 131.467 366.656 131.2 366.656 131.2C367.19 131.2 367.456 130.933 367.456 130.4C369.056 128.267 371.19 126.933 373.856 126.4C376.523 125.867 378.39 124.267 379.456 121.6C380.523 118.933 382.123 116.533 384.256 114.4C388.523 110.133 393.056 106.133 397.856 102.4C402.656 98.1333 407.456 94.1333 412.256 90.4C415.456 89.8667 417.856 89.3333 419.456 88.8C421.056 87.7333 421.856 85.6 421.856 82.4H422.656C428.523 78.1333 434.39 74.1333 440.256 70.4C446.123 66.6666 451.723 63.2 457.056 60C461.323 57.3333 465.323 54.9333 469.056 52.8C473.323 50.6667 477.323 48.5333 481.056 46.4H483.456C485.59 46.4 487.19 45.8666 488.256 44.8C489.323 43.7333 490.656 42.4 492.256 40.8H493.056C532.523 23.2 569.056 14.4 602.656 14.4C606.923 14.4 611.456 14.6666 616.256 15.2C621.056 15.2 625.59 15.4666 629.856 16C654.923 19.2 673.856 27.4666 686.656 40.8C699.456 53.6 705.856 67.7333 705.856 83.2C705.856 88.5333 705.056 94.1333 703.456 100C708.79 96.2666 713.59 92.5333 717.856 88.8C722.123 85.0666 725.59 80.8 728.256 76C729.323 74.4 730.656 73.8667 732.256 74.4C733.856 74.4 734.123 75.2 733.056 76.8C731.456 81.6 727.99 86.9333 722.656 92.8C717.323 98.1333 711.456 102.933 705.056 107.2C705.056 107.733 703.723 109.6 701.056 112.8C698.39 115.467 697.323 117.333 697.856 118.4C697.856 118.933 697.056 120 695.456 121.6C694.39 122.667 693.59 123.733 693.056 124.8L687.456 132C687.456 132 687.456 132.267 687.456 132.8C687.456 132.8 687.19 133.067 686.656 133.6C686.656 133.6 685.59 134.133 683.456 135.2C682.39 136.267 680.79 138.133 678.656 140.8C677.056 143.467 674.923 145.333 672.256 146.4L669.056 148C668.523 148.533 667.99 149.333 667.456 150.4C666.923 150.933 666.123 151.733 665.056 152.8C662.923 154.933 658.923 157.6 653.056 160.8C647.723 163.467 643.723 165.867 641.056 168C641.056 168 640.523 168.267 639.456 168.8C638.39 169.333 637.056 170.133 635.456 171.2L633.056 172C632.523 172 631.456 172.533 629.856 173.6C628.79 174.667 627.99 175.467 627.456 176C626.923 176.533 626.123 176.8 625.056 176.8C624.523 176.8 623.723 177.333 622.656 178.4C622.123 178.933 621.323 179.2 620.256 179.2C619.19 179.2 618.123 179.733 617.056 180.8L605.056 184C604.523 184.533 602.923 185.6 600.256 187.2C598.123 188.267 596.79 188.8 596.256 188.8H594.656C594.123 188.8 593.59 189.067 593.056 189.6C593.056 190.133 592.523 190.4 591.456 190.4C590.923 190.933 590.123 191.2 589.056 191.2C588.523 190.667 587.723 190.667 586.656 191.2C586.123 191.2 585.323 191.733 584.256 192.8C583.723 193.333 583.19 193.6 582.656 193.6H580.256L575.456 196C573.323 196.533 570.923 196.8 568.256 196.8C566.123 196.8 563.723 197.333 561.056 198.4C560.523 198.4 559.456 198.133 557.856 197.6C556.79 197.067 555.723 196.8 554.656 196.8C549.856 198.4 545.056 199.2 540.256 199.2C539.723 199.733 539.19 199.733 538.656 199.2C538.656 198.667 538.39 198.4 537.856 198.4C537.323 198.4 537.056 198.667 537.056 199.2C537.056 199.2 536.79 199.2 536.256 199.2C536.256 199.2 535.456 199.2 533.856 199.2C532.79 198.667 531.99 198.133 531.456 197.6H530.656C529.59 197.6 528.79 197.333 528.256 196.8C527.723 196.267 527.19 196 526.656 196C526.656 196 526.656 196.267 526.656 196.8C526.656 196.8 526.39 196.8 525.856 196.8C525.323 196.8 524.79 196.533 524.256 196C523.19 196 521.323 195.733 518.656 195.2C516.523 194.133 515.19 193.333 514.656 192.8C513.056 193.333 511.456 192.8 509.856 191.2C508.79 190.133 508.256 189.867 508.256 190.4L502.656 188C502.656 187.467 502.39 187.2 501.856 187.2C501.856 186.667 501.856 186.4 501.856 186.4H500.256C499.19 185.333 498.39 184.8 497.856 184.8C497.323 183.2 496.79 182.133 496.256 181.6C495.723 181.067 494.923 180.267 493.856 179.2C493.856 177.067 493.59 176 493.056 176C493.056 174.933 492.256 173.333 490.656 171.2C489.59 168.533 489.056 166.133 489.056 164L488.256 163.2C486.123 161.067 485.59 157.333 486.656 152C487.19 149.333 486.923 148.267 485.856 148.8C484.79 148.8 485.056 147.2 486.656 144L490.656 136C490.656 135.467 490.39 135.2 489.856 135.2C489.323 134.667 489.323 134.133 489.856 133.6C489.856 133.067 489.856 132.8 489.856 132.8C490.39 132.267 490.656 131.733 490.656 131.2C491.19 130.667 491.456 129.6 491.456 128C491.456 126.933 491.723 126.133 492.256 125.6C492.256 125.067 492.79 124 493.856 122.4C495.456 120.267 496.523 118.933 497.056 118.4L501.856 112.8C502.39 112.267 503.19 111.733 504.256 111.2C505.323 110.667 506.123 109.867 506.656 108.8C507.723 107.733 508.79 107.2 509.856 107.2C511.456 106.667 512.523 105.867 513.056 104.8C514.656 102.133 516.523 100.8 518.656 100.8H520.256C522.39 100.8 523.456 101.333 523.456 102.4C523.456 105.067 521.856 107.2 518.656 108.8C516.523 110.933 515.456 112 515.456 112C515.456 111.467 514.656 112 513.056 113.6C513.056 114.133 512.523 114.4 511.456 114.4C510.923 114.4 510.656 114.933 510.656 116C510.123 116 510.123 116.267 510.656 116.8C511.19 117.333 511.19 118.133 510.656 119.2C510.656 121.333 510.656 122.4 510.656 122.4C510.123 122.933 510.123 123.733 510.656 124.8C511.19 125.333 511.19 126.133 510.656 127.2C510.123 127.2 509.59 127.467 509.056 128L508.256 139.2C508.256 139.2 508.523 140.8 509.056 144C509.59 146.667 509.59 148.267 509.056 148.8V152.8C509.056 154.4 511.456 156 516.256 157.6C516.79 158.133 517.323 158.4 517.856 158.4C518.923 157.867 519.723 157.867 520.256 158.4C527.19 160.533 531.723 162.133 533.856 163.2C535.99 163.733 540.79 164 548.256 164H554.656C557.323 164 559.723 163.733 561.856 163.2C562.39 163.2 562.39 163.467 561.856 164C561.856 164 562.123 164 562.656 164L572.256 162.4C572.79 161.867 573.323 161.6 573.856 161.6C574.39 161.067 574.923 161.067 575.456 161.6C575.99 161.6 576.523 161.6 577.056 161.6L594.656 156.8C597.856 155.733 600.79 154.667 603.456 153.6C606.656 152 609.856 150.933 613.056 150.4C617.856 149.333 622.923 147.467 628.256 144.8C633.59 141.6 638.923 138.933 644.256 136.8C644.256 136.267 646.656 134.667 651.456 132C656.79 129.333 662.39 126.4 668.256 123.2L670.656 115.2C671.723 112.533 673.323 111.2 675.456 111.2C677.59 110.667 679.19 109.6 680.256 108C678.656 106.933 677.323 106.133 676.256 105.6C675.19 105.067 675.19 103.733 676.256 101.6V100.8L680.256 88C682.39 81.6 683.456 75.4667 683.456 69.6C683.456 56.2666 678.39 46.6666 668.256 40.8C658.123 34.9333 646.123 32 632.256 32C630.123 32 627.723 32 625.056 32C622.923 32 620.523 32.2667 617.856 32.8C613.056 33.3333 608.256 34.1333 603.456 35.2C598.656 36.2666 593.59 37.3333 588.256 38.4H586.656C584.523 38.4 582.656 38.9333 581.056 40C579.456 40.5333 577.856 41.3333 576.256 42.4C568.79 44.5333 560.523 47.4667 551.456 51.2C546.656 52.2667 543.19 53.8667 541.056 56C538.923 57.0666 537.59 57.6 537.056 57.6V58.4C533.856 59.4667 531.19 60 529.056 60C527.99 60 526.656 60 525.056 60C523.456 59.4666 521.856 59.2 520.256 59.2C521.323 59.7333 522.123 60 522.656 60C523.19 60 523.723 60.2667 524.256 60.8C524.79 62.4 524.256 63.4666 522.656 64C521.59 64.5333 520.79 65.3333 520.256 66.4H519.456C518.923 66.9333 517.856 67.4667 516.256 68C515.19 68.5333 514.123 69.3333 513.056 70.4C508.256 70.9333 503.99 72.5333 500.256 75.2C497.056 77.8666 494.123 80.8 491.456 84H490.656L472.256 96.8C467.99 98.9333 464.256 101.6 461.056 104.8C454.123 110.133 447.19 115.733 440.256 121.6C433.323 127.467 426.39 133.333 419.456 139.2H417.856C415.19 139.2 413.59 140 413.056 141.6C413.056 142.667 412.523 144.533 411.456 147.2H410.656C409.056 149.333 407.19 151.2 405.056 152.8C402.923 153.333 401.59 154.4 401.056 156C400.523 157.6 399.456 159.2 397.856 160.8L392.256 166.4C390.123 165.867 387.723 165.067 385.056 164C382.923 162.4 380.523 161.6 377.856 161.6C377.856 161.6 377.59 161.867 377.056 162.4C377.056 162.4 377.056 162.933 377.056 164C380.256 164.533 382.923 165.867 385.056 168C387.19 170.133 386.923 172.533 384.256 175.2L382.656 176.8C380.523 178.933 377.856 179.733 374.656 179.2C371.99 178.667 369.59 179.733 367.456 182.4C368.523 182.933 369.856 183.2 371.456 183.2C373.056 183.2 373.856 184.533 373.856 187.2C371.19 190.4 368.523 193.6 365.856 196.8C363.723 200 361.323 203.2 358.656 206.4C356.523 208.533 354.656 210.933 353.056 213.6C351.456 215.733 349.323 217.6 346.656 219.2C346.123 219.733 345.856 220.533 345.856 221.6C346.39 222.133 346.39 222.667 345.856 223.2V224L333.856 243.2C331.19 244.8 329.056 246.4 327.456 248C325.856 249.6 325.056 252 325.056 255.2C327.19 253.067 328.256 252.267 328.256 252.8V253.6C328.256 254.667 327.723 255.733 326.656 256.8C325.59 257.333 324.79 258.133 324.256 259.2L320.256 268.8C314.923 281.067 311.19 292 309.056 301.6C305.856 311.733 304.256 321.333 304.256 330.4C303.723 332.533 302.656 334.667 301.056 336.8C299.99 338.4 300.256 340.267 301.856 342.4C302.923 343.467 303.723 344.267 304.256 344.8C304.79 344.8 305.056 345.867 305.056 348C305.056 350.667 305.323 352.533 305.856 353.6V356C305.856 357.6 305.323 359.2 304.256 360.8C303.19 362.4 302.923 364 303.456 365.6C303.99 366.133 305.056 366.4 306.656 366.4C308.256 365.867 309.323 366.133 309.856 367.2L314.656 376C316.256 377.067 317.323 378.667 317.856 380.8C318.39 382.933 318.923 384.533 319.456 385.6C320.523 386.667 321.856 387.733 323.456 388.8C325.056 389.333 326.123 390.4 326.656 392C326.656 392.533 326.39 393.067 325.856 393.6C325.856 393.6 325.856 394.133 325.856 395.2C328.523 394.133 328.79 392 326.656 388.8C329.856 390.933 329.856 393.067 326.656 395.2C327.723 395.2 328.79 395.2 329.856 395.2C330.923 394.667 331.99 394.4 333.056 394.4C335.19 394.4 337.323 395.2 339.456 396.8C347.99 401.067 357.59 404 368.256 405.6C379.456 407.733 391.456 408.8 404.256 408.8C418.656 408.8 434.123 407.467 450.656 404.8C467.19 402.667 483.723 399.733 500.256 396V395.2C501.323 395.2 502.123 395.467 502.656 396C503.19 396 503.723 396 504.256 396C506.923 396 509.323 394.933 511.456 392.8L520.256 390.4C524.523 387.733 528.523 385.6 532.256 384C535.99 382.4 539.99 382.133 544.256 383.2C545.323 383.733 545.323 384.267 544.256 384.8C543.723 384.8 543.456 385.333 543.456 386.4C544.523 385.867 545.323 385.067 545.856 384C546.39 382.933 547.19 382.133 548.256 381.6L553.056 380C556.79 379.467 559.99 378.667 562.656 377.6C565.323 376 568.256 374.667 571.456 373.6L580.256 370.4C581.323 370.933 582.39 371.2 583.456 371.2C585.59 371.2 587.19 370.667 588.256 369.6C589.323 368 590.923 366.4 593.056 364.8C593.59 364.8 594.923 364.267 597.056 363.2C599.723 362.133 602.656 361.333 605.856 360.8C609.056 359.733 611.723 358.133 613.856 356H614.656C622.656 352.267 630.39 348.533 637.856 344.8C645.323 341.067 652.523 337.333 659.456 333.6L681.056 321.6C683.723 319.467 685.856 317.6 687.456 316C689.056 314.4 691.19 313.6 693.856 313.6L694.656 312.8C698.39 309.067 702.39 306.133 706.656 304C710.923 301.333 714.39 298.667 717.056 296C721.323 292.267 724.523 290.4 726.656 290.4C728.256 290.4 729.056 291.467 729.056 293.6C729.056 296.267 727.456 299.2 724.256 302.4C719.456 306.667 714.123 311.467 708.256 316.8C702.39 322.133 695.723 327.733 688.256 333.6C685.59 335.733 682.656 337.067 679.456 337.6C676.79 338.133 674.923 340 673.856 343.2C670.656 345.333 667.19 347.467 663.456 349.6C660.256 351.733 656.523 353.867 652.256 356C647.456 358.667 642.39 361.333 637.056 364C632.256 366.667 626.923 369.333 621.056 372C619.456 372 617.59 372 615.456 372C613.856 371.467 612.256 371.2 610.656 371.2C606.923 371.2 604.256 372 602.656 373.6C602.656 373.6 602.656 373.867 602.656 374.4C602.656 374.4 602.923 374.933 603.456 376C604.523 376 605.59 376 606.656 376C607.723 375.467 608.79 375.467 609.856 376C609.856 376 609.856 376.267 609.856 376.8C609.856 377.333 609.323 377.6 608.256 377.6C606.123 378.667 604.523 379.2 603.456 379.2V380L597.856 382.4H597.056C594.923 384.533 593.323 384 592.256 380.8C590.656 381.333 589.056 382.4 587.456 384C586.39 385.6 585.056 386.933 583.456 388L577.856 390.4C575.723 390.933 573.59 391.467 571.456 392C569.323 392 567.723 392.8 566.656 394.4H565.856C563.723 395.467 561.056 396.533 557.856 397.6C555.19 398.133 552.523 398.933 549.856 400V400.8H545.856C543.19 400.8 540.256 400.533 537.056 400C533.856 398.933 530.656 398.4 527.456 398.4C528.523 400 530.39 400.8 533.056 400.8C535.723 401.333 536.523 402.667 535.456 404.8C535.456 405.333 535.19 405.6 534.656 405.6L513.856 411.2V412C511.723 412.533 509.323 412.8 506.656 412.8C504.523 413.333 502.39 414.133 500.256 415.2C479.456 420.533 458.923 424.267 438.656 426.4C418.39 428.533 399.456 429.6 381.856 429.6H381.056ZM553.056 191.2C553.59 190.667 554.656 190.4 556.256 190.4C558.39 189.867 559.99 189.333 561.056 188.8L578.656 187.2C579.19 187.2 579.723 186.933 580.256 186.4C580.79 185.867 581.323 185.6 581.856 185.6C582.39 185.067 583.19 184.8 584.256 184.8C586.923 182.667 588.256 182.4 588.256 184C588.256 185.067 589.323 184.8 591.456 183.2C591.99 182.667 592.79 182.4 593.856 182.4C594.923 181.333 595.723 180.8 596.256 180.8C597.323 180.267 598.123 179.733 598.656 179.2C599.723 178.667 600.256 178.4 600.256 178.4C600.256 177.867 600.79 177.6 601.856 177.6H602.656C603.723 177.6 605.59 176.8 608.256 175.2C610.923 173.6 612.256 172.8 612.256 172.8C612.79 172.8 613.323 172.267 613.856 171.2C614.923 170.133 615.723 169.6 616.256 169.6C616.79 169.067 617.59 168.8 618.656 168.8C619.723 168.267 620.256 167.733 620.256 167.2C621.323 166.667 622.39 166.133 623.456 165.6C624.523 165.067 625.323 164.8 625.856 164.8C626.39 164.267 627.456 163.467 629.056 162.4C631.19 161.333 632.256 160.533 632.256 160C633.323 158.933 634.39 158.133 635.456 157.6C637.056 157.067 638.123 156.533 638.656 156C640.256 155.467 643.99 152.8 649.856 148C655.723 142.667 660.79 136.533 665.056 129.6C666.123 128.533 663.723 129.867 657.856 133.6C652.523 136.8 649.59 138.667 649.056 139.2C648.523 139.2 647.456 140 645.856 141.6C644.256 142.667 643.19 143.2 642.656 143.2L641.056 144.8H638.656L637.856 145.6C637.856 145.6 636.79 146.133 634.656 147.2C634.123 147.2 633.056 147.733 631.456 148.8C629.856 149.867 628.79 150.4 628.256 150.4C627.723 150.4 627.19 150.667 626.656 151.2C626.123 151.2 625.59 151.2 625.056 151.2C622.923 152.8 619.723 154.4 615.456 156C611.723 157.6 609.056 158.4 607.456 158.4H606.656C605.59 158.4 604.523 158.933 603.456 160L602.656 160.8L598.656 161.6C597.59 162.133 596.256 162.667 594.656 163.2C593.056 163.733 591.723 164 590.656 164C590.123 164.533 589.856 164.8 589.856 164.8C589.856 164.267 589.856 164 589.856 164C588.79 165.067 587.456 165.6 585.856 165.6C585.323 165.6 585.056 165.6 585.056 165.6C585.056 165.067 584.79 164.8 584.256 164.8C583.723 164.8 582.656 165.6 581.056 167.2H577.056C577.056 167.733 576.523 168 575.456 168H574.656C574.123 168 573.323 168.267 572.256 168.8C571.19 169.333 570.39 169.6 569.856 169.6C569.323 169.6 569.056 169.867 569.056 170.4C569.056 170.4 568.79 170.4 568.256 170.4C568.256 169.867 567.99 169.6 567.456 169.6H566.656L561.856 171.2H559.456C557.856 171.2 555.99 170.933 553.856 170.4C552.256 169.867 550.39 169.867 548.256 170.4C547.723 170.4 547.456 170.667 547.456 171.2C547.456 171.2 547.19 171.2 546.656 171.2H545.056C545.056 171.2 544.79 171.2 544.256 171.2C544.256 171.2 543.99 171.467 543.456 172C543.456 171.467 543.19 171.2 542.656 171.2H537.856C537.856 170.667 537.59 170.4 537.056 170.4C536.523 170.4 535.99 170.667 535.456 171.2C534.923 171.2 534.39 171.2 533.856 171.2C530.656 171.2 528.256 170.133 526.656 168C525.056 165.867 522.123 165.333 517.856 166.4C517.856 165.867 517.59 165.6 517.056 165.6C516.523 165.067 516.256 164.533 516.256 164H515.456C514.39 165.067 513.856 165.867 513.856 166.4C513.323 166.933 513.323 167.733 513.856 168.8C514.923 169.333 515.19 170.133 514.656 171.2C515.19 171.733 515.456 172.533 515.456 173.6C515.99 174.133 516.523 174.4 517.056 174.4C517.056 176 517.856 177.6 519.456 179.2C519.456 179.733 519.723 180.267 520.256 180.8C521.323 181.333 521.59 181.6 521.056 181.6C521.59 182.133 522.123 182.4 522.656 182.4C523.19 182.4 523.456 182.933 523.456 184L525.856 186.4H526.656C531.456 188.533 536.256 190.133 541.056 191.2C546.39 191.733 550.39 191.733 553.056 191.2ZM1023.73 257.6C1019.99 257.6 1017.06 257.067 1014.93 256C1010.13 253.867 1007.73 252.8 1007.73 252.8C1007.73 252.267 1010.13 250.4 1014.93 247.2C1018.66 245.067 1022.93 244.267 1027.73 244.8C1033.06 245.333 1036.79 245.333 1038.93 244.8C1051.73 242.133 1067.19 238.4 1085.33 233.6C1103.46 228.8 1124.53 219.2 1148.53 204.8L1179.73 186.4C1182.39 184.8 1184.26 185.067 1185.33 187.2C1184.26 187.733 1183.73 189.067 1183.73 191.2C1187.46 191.2 1189.59 189.867 1190.13 187.2C1191.19 184 1192.26 181.067 1193.33 178.4H1194.13L1211.73 167.2C1214.39 166.667 1216.79 166.933 1218.93 168C1221.59 169.067 1223.99 168.8 1226.13 167.2C1225.06 165.067 1223.99 163.733 1222.93 163.2C1221.86 162.133 1222.39 160.8 1224.53 159.2L1227.73 156.8C1231.99 154.133 1235.73 152.267 1238.93 151.2C1242.66 149.6 1245.33 146.667 1246.93 142.4C1257.59 132.8 1266.66 123.2 1274.13 113.6C1281.59 104 1285.33 94.9333 1285.33 86.4C1285.33 77.3333 1280.26 69.6 1270.13 63.2C1260.53 56.2666 1243.19 51.2 1218.13 48L1211.73 47.2C1207.99 46.6666 1204.53 46.1333 1201.33 45.6C1198.13 45.0666 1194.93 44 1191.73 42.4C1192.26 44.5333 1191.19 45.6 1188.53 45.6C1181.06 45.0666 1173.59 44.8 1166.12 44.8C1158.66 44.2666 1151.46 44 1144.53 44C1132.79 44 1121.86 44.2666 1111.73 44.8C1102.13 45.3333 1095.19 45.8666 1090.93 46.4L1064.53 49.6C1061.33 48.5333 1058.13 49.0666 1054.93 51.2H1054.13C1050.39 51.2 1046.66 51.7333 1042.93 52.8C1039.19 53.3333 1035.19 54.1333 1030.93 55.2C1028.79 55.7333 1026.39 56.2667 1023.73 56.8C1021.06 56.8 1018.39 57.3333 1015.73 58.4L999.725 61.6C995.992 64.2667 991.192 65.6 985.325 65.6H984.525L969.325 69.6H968.525C966.392 69.6 964.525 68.5333 962.925 66.4C961.325 63.7333 960.258 61.3333 959.725 59.2C959.192 62.4 958.392 65.8667 957.325 69.6C956.258 73.3333 954.392 75.2 951.725 75.2L929.325 82.4C927.192 82.9333 924.792 83.2 922.125 83.2C919.458 83.2 916.792 83.2 914.125 83.2C911.458 83.2 909.325 83.4666 907.725 84C906.125 84.5333 905.058 85.8666 904.525 88C904.525 89.6 903.725 90.9333 902.125 92C899.992 94.1333 897.325 95.7333 894.125 96.8C890.925 97.3333 887.992 98.1333 885.325 99.2H884.525C883.458 99.2 881.858 98.6667 879.725 97.6C878.125 96.5333 876.792 96.2667 875.725 96.8C875.192 97.3333 874.658 98.6667 874.125 100.8C873.592 102.933 872.792 104.267 871.725 104.8V105.6C868.525 106.667 865.058 108 861.325 109.6C857.592 111.2 854.125 112.8 850.925 114.4C847.725 116 843.992 117.867 839.725 120C835.992 121.6 832.792 122.667 830.125 123.2C829.058 123.2 828.525 122.133 828.525 120C829.058 117.867 828.792 117.333 827.725 118.4C824.525 120 821.325 122.933 818.125 127.2C814.925 131.467 811.992 134.4 809.325 136C806.658 138.133 803.725 139.2 800.525 139.2C797.858 139.2 795.192 140.267 792.525 142.4C790.925 144 789.325 146.667 787.725 150.4C786.658 153.6 785.325 156 783.725 157.6C779.458 161.867 775.192 166.933 770.925 172.8C770.392 173.867 769.592 174.933 768.525 176C767.458 177.067 766.925 178.4 766.925 180H766.125C762.925 186.4 761.325 192.533 761.325 198.4C761.325 210.133 765.592 218.667 774.125 224C783.192 229.333 793.325 233.333 804.525 236C806.658 236.533 808.525 237.333 810.125 238.4C812.258 239.467 814.392 239.733 816.525 239.2C818.658 238.133 820.525 237.6 822.125 237.6C824.792 237.6 826.925 238.667 828.525 240.8L840.525 243.2C846.925 244.8 850.125 246.4 850.125 248C850.125 249.067 848.525 250.133 845.325 251.2C842.658 251.733 839.992 252 837.325 252C827.725 252 815.992 250.133 802.125 246.4C788.258 242.133 775.725 236 764.525 228C753.325 220 746.925 209.6 745.325 196.8C745.325 196.267 744.525 194.933 742.925 192.8C741.858 190.667 741.058 188.8 740.525 187.2C738.925 182.4 738.125 177.6 738.125 172.8C738.125 163.733 739.992 155.2 743.725 147.2C747.992 139.2 753.592 131.733 760.525 124.8C763.192 122.133 765.592 120.267 767.725 119.2C770.392 118.133 773.325 116.533 776.525 114.4C779.725 112.267 781.325 110.4 781.325 108.8C781.325 107.2 782.925 105.333 786.125 103.2C790.392 100.533 796.258 97.3333 803.725 93.6C811.725 89.8667 817.858 86.9333 822.125 84.8C825.325 84.8 828.258 83.4666 830.925 80.8C841.592 76 852.792 71.7333 864.525 68C876.258 63.7333 887.992 59.7333 899.725 56C901.858 55.4667 903.725 54.9333 905.325 54.4C906.925 53.8666 908.525 53.6 910.125 53.6C912.258 53.6 914.392 54.4 916.525 56C916.525 54.9333 916.258 54.1333 915.725 53.6C915.725 52.5333 916.258 51.7333 917.325 51.2C930.658 46.9333 943.725 42.9333 956.525 39.2C969.858 34.9333 982.925 32.8 995.725 32.8H996.525C997.592 32.8 998.658 32.5333 999.725 32C1001.33 31.4667 1002.66 31.2 1003.73 31.2H1004.53L1010.13 30.4C1013.33 32 1016.53 31.4667 1019.73 28.8C1034.13 26.1333 1047.46 24.2667 1059.73 23.2C1071.99 21.6 1082.39 20.8 1090.93 20.8H1094.13C1096.79 20.8 1098.93 20.5333 1100.53 20H1108.53C1110.13 19.4667 1111.73 19.4667 1113.33 20C1115.46 20 1117.06 20 1118.12 20H1118.93C1125.33 20 1131.99 20.2666 1138.93 20.8C1146.39 20.8 1153.86 20.8 1161.33 20.8H1162.13C1164.26 20.8 1165.86 21.6 1166.93 23.2C1168.53 24.2667 1170.39 23.7333 1172.53 21.6C1186.93 22.1333 1201.33 23.7333 1215.73 26.4C1226.39 28 1238.66 31.2 1252.53 36C1266.93 40.8 1279.46 48.2667 1290.13 58.4C1300.79 68 1306.13 81.6 1306.13 99.2C1306.13 107.733 1305.06 115.467 1302.93 122.4C1301.33 128.8 1298.13 134.667 1293.33 140C1289.06 145.333 1283.99 150.667 1278.13 156C1276.53 157.6 1274.93 159.467 1273.33 161.6C1271.73 163.733 1269.86 165.6 1267.73 167.2C1267.19 167.733 1266.13 168.267 1264.53 168.8C1263.46 168.8 1262.39 169.067 1261.33 169.6C1260.26 170.667 1259.19 171.467 1258.13 172C1257.06 172.533 1255.73 173.333 1254.13 174.4C1236.53 186.133 1221.33 194.933 1208.53 200.8C1196.26 206.133 1179.99 212.267 1159.73 219.2C1153.33 221.333 1148.79 222.667 1146.13 223.2C1143.46 223.2 1141.33 223.733 1139.73 224.8C1126.39 228.533 1111.19 233.867 1094.13 240.8C1077.06 247.733 1062.39 252.267 1050.13 254.4C1049.06 254.933 1045.59 255.733 1039.73 256.8C1034.39 257.333 1029.06 257.6 1023.73 257.6ZM1262.93 496.8C1262.39 496.8 1260.53 496.8 1257.33 496.8C1254.13 496.8 1252.26 496.533 1251.73 496C1249.59 494.933 1248.79 493.333 1249.33 491.2C1249.86 489.067 1249.06 488 1246.93 488C1244.79 488 1243.46 488.8 1242.93 490.4C1242.39 492.533 1240.79 493.6 1238.13 493.6H1237.33C1234.66 493.6 1232.26 492.267 1230.13 489.6C1228.53 486.933 1226.66 486.133 1224.53 487.2C1221.33 488.8 1218.66 489.6 1216.53 489.6C1212.79 489.6 1209.86 488.267 1207.73 485.6C1205.59 482.933 1202.66 480.533 1198.93 478.4C1198.39 478.4 1197.33 478.667 1195.73 479.2C1194.66 479.733 1193.59 479.733 1192.53 479.2C1191.99 478.667 1187.73 476.267 1179.73 472C1171.73 468.267 1163.73 464.267 1155.73 460C1147.73 455.733 1142.93 453.067 1141.33 452C1139.73 448.267 1138.13 446.133 1136.52 445.6C1135.46 445.067 1133.06 444.8 1129.33 444.8C1127.19 443.2 1124.26 441.333 1120.53 439.2C1117.33 437.6 1115.19 435.467 1114.12 432.8C1107.19 430.133 1101.06 426.933 1095.73 423.2C1090.39 419.467 1084.79 415.2 1078.93 410.4C1077.86 409.333 1076.53 408.533 1074.93 408C1073.33 407.467 1071.99 406.667 1070.93 405.6L1049.33 389.6C1048.26 386.4 1044.26 382.933 1037.33 379.2C1030.39 374.933 1025.59 370.933 1022.93 367.2C1022.39 366.667 1022.13 366.133 1022.13 365.6C1022.13 362.933 1020.79 361.6 1018.13 361.6C1016.53 361.6 1014.93 361.6 1013.33 361.6C1011.73 361.6 1010.93 360.533 1010.93 358.4C1009.33 354.667 1005.33 350.4 998.925 345.6C992.525 340.267 986.658 334.933 981.325 329.6C975.992 324.267 974.125 319.733 975.725 316C973.592 315.467 971.458 315.2 969.325 315.2C967.192 315.2 965.592 314.4 964.525 312.8C962.392 308.533 959.725 305.067 956.525 302.4C954.925 301.333 953.325 299.733 951.725 297.6L947.725 305.6C945.592 308.8 943.458 312.533 941.325 316.8C939.192 321.067 936.792 325.6 934.125 330.4L926.925 344.8C926.392 346.4 925.592 347.2 924.525 347.2C923.992 346.667 923.192 346.4 922.125 346.4C923.192 348.533 923.725 350.4 923.725 352C923.725 356.267 921.325 360.8 916.525 365.6C909.592 381.6 903.192 396.8 897.325 411.2C891.458 425.6 886.925 438.933 883.725 451.2C882.658 455.467 881.058 457.6 878.925 457.6C875.192 457.6 873.325 453.6 873.325 445.6C873.325 438.133 876.258 426.4 882.125 410.4L881.325 411.2C880.792 411.2 878.925 411.733 875.725 412.8C872.525 413.867 870.392 414.133 869.325 413.6C862.392 413.6 858.925 411.2 858.925 406.4C858.925 393.6 861.592 380.267 866.925 366.4L887.725 312C888.792 310.4 889.325 308.8 889.325 307.2C889.858 305.6 890.392 304 890.925 302.4L891.725 301.6V300.8L894.925 284C895.992 279.2 896.525 274.933 896.525 271.2C897.058 267.467 897.325 262.933 897.325 257.6C897.325 256 898.125 254.933 899.725 254.4C899.725 250.667 899.992 247.2 900.525 244C901.058 240.267 901.325 236.533 901.325 232.8V228.8C900.792 228.267 900.525 227.2 900.525 225.6C900.525 224.533 900.258 223.467 899.725 222.4C899.725 221.333 899.725 220.267 899.725 219.2C899.725 218.667 899.725 218.4 899.725 218.4C900.258 217.867 900.525 217.333 900.525 216.8C901.592 210.4 903.458 204.533 906.125 199.2C909.325 193.867 912.792 192.533 916.525 195.2C917.592 195.733 919.458 198.933 922.125 204.8C925.325 210.667 927.992 214.933 930.125 217.6C932.258 222.933 934.925 228 938.125 232.8C941.325 237.067 943.992 241.867 946.125 247.2C947.725 249.867 948.525 252 948.525 253.6C948.525 254.667 950.392 255.733 954.125 256.8C969.592 229.067 985.058 202.667 1000.53 177.6C1016.53 152 1031.46 132.267 1045.33 118.4L1047.73 116.8L1050.13 112.8C1050.13 112.8 1050.66 112.533 1051.73 112C1052.79 111.467 1053.59 111.733 1054.13 112.8C1054.13 113.333 1053.59 114.4 1052.53 116C1051.99 117.6 1051.73 118.667 1051.73 119.2C1053.33 121.867 1055.19 122.133 1057.33 120C1057.86 118.933 1057.86 116.533 1057.33 112.8C1056.79 109.067 1056.79 107.2 1057.33 107.2C1058.39 106.667 1058.93 106.667 1058.93 107.2C1059.46 107.733 1059.99 108 1060.53 108C1061.59 108 1062.13 107.2 1062.13 105.6C1062.13 104 1062.39 102.933 1062.93 102.4C1068.79 100.267 1074.13 99.2 1078.93 99.2C1081.59 99.2 1085.33 100.533 1090.13 103.2C1095.46 105.867 1098.13 109.6 1098.13 114.4C1098.13 117.067 1096.79 120.267 1094.13 124C1093.59 124.533 1093.06 125.6 1092.53 127.2C1091.99 128.267 1091.19 129.333 1090.13 130.4C1089.59 130.933 1089.06 131.2 1088.53 131.2C1088.53 130.667 1087.99 130.667 1086.93 131.2C1086.39 131.733 1085.59 132 1084.53 132C1083.99 131.467 1083.19 131.2 1082.13 131.2C1081.06 131.2 1080.79 132 1081.33 133.6C1082.39 135.2 1082.66 136.267 1082.13 136.8C1081.59 137.333 1081.06 137.333 1080.53 136.8C1079.99 136.267 1079.19 136.533 1078.13 137.6C1077.59 138.133 1077.86 138.667 1078.93 139.2C1080.53 139.2 1080.79 139.733 1079.73 140.8C1076.53 144 1072.53 147.467 1067.73 151.2C1063.46 154.4 1059.19 157.6 1054.93 160.8C1054.39 161.333 1053.86 161.333 1053.33 160.8C1052.79 159.733 1052.26 159.467 1051.73 160L1046.13 168C1040.79 173.333 1035.46 178.933 1030.13 184.8C1024.79 190.667 1019.19 197.333 1013.33 204.8C1011.73 208 1009.86 210.933 1007.73 213.6C1005.59 216.267 1002.66 217.333 998.925 216.8C998.925 217.333 999.458 218.133 1000.53 219.2C1001.59 219.733 1001.59 220.8 1000.53 222.4C988.792 238.4 977.858 254.933 967.725 272L984.525 292.8C986.125 294.933 986.925 297.333 986.925 300C986.925 302.133 987.458 303.467 988.525 304C989.592 304 990.392 303.733 990.925 303.2C991.992 302.667 992.792 302.4 993.325 302.4C994.925 302.4 996.258 303.733 997.325 306.4C998.925 308.533 1000.53 310.4 1002.13 312C1004.26 314.133 1006.39 316.267 1008.53 318.4C1011.19 320.533 1013.86 322.933 1016.53 325.6V326.4C1018.66 328 1022.13 330.933 1026.93 335.2C1031.73 339.467 1036.26 343.733 1040.53 348C1044.79 351.733 1047.19 354.667 1047.73 356.8C1048.79 358.933 1050.39 360.267 1052.53 360.8C1054.66 361.333 1056.53 362.133 1058.13 363.2C1062.39 366.4 1066.66 369.6 1070.93 372.8C1075.73 376 1080.26 379.467 1084.53 383.2C1086.13 384.267 1086.66 385.333 1086.13 386.4C1086.13 387.467 1086.39 388.533 1086.93 389.6C1087.99 390.133 1089.86 390.933 1092.53 392C1095.73 392.533 1098.13 393.333 1099.73 394.4C1111.99 402.4 1124.26 410.133 1136.52 417.6C1148.79 425.6 1161.59 433.067 1174.93 440C1188.79 446.933 1202.93 453.067 1217.33 458.4C1231.73 463.733 1246.93 466.4 1262.93 466.4C1275.73 466.4 1287.99 464 1299.73 459.2C1311.99 454.4 1318.13 445.6 1318.13 432.8C1318.13 428.533 1317.33 424 1315.73 419.2C1315.19 416.533 1314.13 413.6 1312.53 410.4C1311.46 407.2 1309.59 404.8 1306.93 403.2C1305.33 400 1302.39 397.867 1298.13 396.8C1295.46 394.133 1293.06 391.467 1290.93 388.8C1288.79 385.6 1285.59 384.267 1281.33 384.8C1279.73 383.2 1278.93 381.6 1278.93 380C1278.93 377.867 1279.73 376.267 1281.33 375.2C1283.46 373.6 1285.86 373.333 1288.53 374.4C1292.26 376.533 1295.19 379.467 1297.33 383.2C1299.99 386.4 1303.46 388.267 1307.73 388.8L1311.73 392.8C1313.33 395.467 1314.93 397.6 1316.53 399.2C1318.66 400.8 1320.53 402.933 1322.13 405.6C1323.73 407.733 1325.33 410.667 1326.93 414.4C1329.06 418.667 1330.39 422.133 1330.93 424.8C1331.99 426.933 1332.26 429.067 1331.73 431.2C1331.73 433.333 1332.53 435.733 1334.13 438.4C1335.19 454.933 1329.86 468.267 1318.13 478.4C1306.39 489.067 1292.79 494.933 1277.33 496C1275.73 494.933 1274.13 494.133 1272.53 493.6C1271.46 493.067 1270.39 492.8 1269.33 492.8C1267.73 492.8 1265.59 494.133 1262.93 496.8ZM892.525 384.8C893.592 385.333 894.125 385.333 894.125 384.8C894.658 383.733 894.925 383.2 894.925 383.2C895.992 381.6 896.525 380 896.525 378.4C896.525 376.267 896.792 374.4 897.325 372.8C906.925 348.8 919.192 322.667 934.125 294.4C935.192 292.267 936.258 291.733 937.325 292.8C938.925 293.333 939.992 293.067 940.525 292C941.592 290.933 941.858 289.6 941.325 288C941.325 286.4 941.325 285.067 941.325 284C940.792 282.933 939.992 282.133 938.925 281.6C937.858 281.067 937.058 280.267 936.525 279.2C934.392 273.333 931.458 269.6 927.725 268C924.525 265.867 922.125 262.667 920.525 258.4C918.392 253.6 916.258 250.133 914.125 248C912.525 245.333 910.392 242.133 907.725 238.4L905.325 265.6C904.792 270.933 903.992 277.067 902.925 284C902.392 290.933 901.058 297.333 898.925 303.2C898.392 304.8 898.125 307.2 898.125 310.4V319.2C898.125 320.267 897.858 321.6 897.325 323.2C897.325 324.8 897.325 326.4 897.325 328L895.725 344C895.192 349.333 894.392 354.933 893.325 360.8C892.258 366.133 891.725 371.2 891.725 376C891.725 380.267 891.992 383.2 892.525 384.8Z" fill="#228BE6"/>
</svg>
