<svg width="729" height="718" viewBox="0 0 729 718" fill="none" xmlns="http://www.w3.org/2000/svg">
<circle cx="285.412" cy="25.2556" r="18.1849" transform="rotate(34.1269 285.412 25.2556)" fill="#339AF0"/>
<circle cx="198.694" cy="153.209" r="18.1849" transform="rotate(34.1269 198.694 153.209)" fill="#339AF0"/>
<circle cx="111.975" cy="281.163" r="18.1849" transform="rotate(34.1269 111.975 281.163)" fill="#339AF0"/>
<circle cx="25.2556" cy="409.117" r="18.1849" transform="rotate(34.1269 25.2556 409.117)" fill="#339AF0"/>
<circle cx="424.656" cy="119.626" r="18.1849" transform="rotate(34.1269 424.656 119.626)" fill="#339AF0"/>
<circle cx="337.937" cy="247.58" r="18.1849" transform="rotate(34.1269 337.937 247.58)" fill="#339AF0"/>
<circle cx="251.218" cy="375.534" r="18.1849" transform="rotate(34.1269 251.218 375.534)" fill="#339AF0"/>
<circle cx="164.499" cy="503.487" r="18.1849" transform="rotate(34.1269 164.499 503.487)" fill="#339AF0"/>
<circle cx="563.9" cy="213.997" r="18.1849" transform="rotate(34.1269 563.9 213.997)" fill="#339AF0"/>
<circle cx="477.181" cy="341.951" r="18.1849" transform="rotate(34.1269 477.181 341.951)" fill="#339AF0"/>
<circle cx="390.462" cy="469.904" r="18.1849" transform="rotate(34.1269 390.462 469.904)" fill="#339AF0"/>
<circle cx="303.743" cy="597.858" r="18.1849" transform="rotate(34.1269 303.743 597.858)" fill="#339AF0"/>
<circle cx="703.144" cy="308.367" r="18.1849" transform="rotate(34.1269 703.144 308.367)" fill="#339AF0"/>
<circle cx="616.425" cy="436.321" r="18.1849" transform="rotate(34.1269 616.425 436.321)" fill="#339AF0"/>
<circle cx="529.706" cy="564.275" r="18.1849" transform="rotate(34.1269 529.706 564.275)" fill="#339AF0"/>
<circle cx="442.987" cy="692.229" r="18.1849" transform="rotate(34.1269 442.987 692.229)" fill="#339AF0"/>
</svg>
